<svg width="53" height="76" viewBox="0 0 53 76" fill="none" xmlns="http://www.w3.org/2000/svg">
<g filter="url(#filter0_d_8_100)">
<path d="M13.542 47.2476L19.0534 59.7381L21.6641 67H23.6947L27.1756 57.7048L32.1069 48.9905L44 31.5619V23.4286L34.7176 9.19524L25.145 6L13.542 12.9714L6 23.4286L13.542 47.2476Z" fill="white" stroke="white" stroke-width="10"/>
<path d="M13.542 47.2476L19.0534 59.7381L21.6641 67H23.6947L27.1756 57.7048L32.1069 48.9905L44 31.5619V23.4286L34.7176 9.19524L25.145 6L13.542 12.9714L6 23.4286L13.542 47.2476Z" stroke="black" stroke-width="4"/>
<path d="M19.1634 30.2397L25.165 32.7238L33.2671 30.2397V21.235L26.6654 14.7143L19.1634 17.8194L15.8625 23.7191L19.1634 30.2397Z" fill="#00C2FF" stroke="black" stroke-width="4"/>
</g>
<defs>
<filter id="filter0_d_8_100" x="0.474609" y="0.528137" width="52.5254" height="75.4719" filterUnits="userSpaceOnUse" color-interpolation-filters="sRGB">
<feFlood flood-opacity="0" result="BackgroundImageFix"/>
<feColorMatrix in="SourceAlpha" type="matrix" values="0 0 0 0 0 0 0 0 0 0 0 0 0 0 0 0 0 0 127 0" result="hardAlpha"/>
<feOffset dx="3" dy="3"/>
<feGaussianBlur stdDeviation="0.5"/>
<feComposite in2="hardAlpha" operator="out"/>
<feColorMatrix type="matrix" values="0 0 0 0 0 0 0 0 0 0 0 0 0 0 0 0 0 0 0.39 0"/>
<feBlend mode="normal" in2="BackgroundImageFix" result="effect1_dropShadow_8_100"/>
<feBlend mode="normal" in="SourceGraphic" in2="effect1_dropShadow_8_100" result="shape"/>
</filter>
</defs>
</svg>
